<svg width="27" height="33" viewBox="0 0 27 33" fill="none" xmlns="http://www.w3.org/2000/svg">
<path d="M13.2633 0C9.97091 0 7.2686 2.77737 7.2686 6.16124V7.39349H1.34881L1.27388 8.54873L0.0749341 30.7292L0 32.0385H26.5267L26.4517 30.7292L25.2528 8.54873L25.1778 7.39349H19.2581V6.16124C19.2581 2.77737 16.5557 0 13.2633 0ZM13.2633 2.4645C15.2491 2.4645 16.8602 4.12033 16.8602 6.16124V7.39349H9.66649V6.16124C9.66649 4.12033 11.2776 2.4645 13.2633 2.4645ZM3.59683 9.85799H7.2686V13.5547H9.66649V9.85799H16.8602V13.5547H19.2581V9.85799H22.9298L23.9789 29.574H2.54776L3.59683 9.85799Z" fill="white"/>
</svg>
